<svg version="1.2" xmlns="http://www.w3.org/2000/svg" viewBox="0 0 176 203" width="176" height="203">
	<title>charmander</title>
	<style>
		.s0 { fill: #ef8200 } 
		.s1 { fill: #ddd583 } 
		.s2 { fill: #cf7100 } 
		.s3 { fill: #fff697 } 
		.s4 { fill: #922f00 } 
		.s5 { fill: #ed8599 } 
		.s6 { fill: #ce7486 } 
		.s7 { fill: #ffffff } 
		.s8 { fill: #0d131a } 
		.s9 { fill: #efe908 } 
		.s10 { fill: #e50020 } 
		.s11 { fill: #dbdcdc } 
		.s12 { fill: #007f78 } 
	</style>
	<g>
		<path class="s0" d="m15.9 132.2q0.9 15.4 10.6 25.9 8.5 9.2 21.9 12.9 12.5 3.5 24.5 1.3 12.2-2.3 18.1-9.3-1-2.5-2.2-7.1-1.8-6.7-1.5-10.5-5.8 6.3-14.5 9.7-9.1 3.6-18.4 2.7-22.8-2.3-34.3-28.5l-0.9 1.5q-1.3 1.4-3.3 1.4z"/>
		<path class="s1" d="m91 163.1q-13.2 11.9-32.3 10.1-17.5-1.8-32-13.6 14.8 17.1 37.5 17.6 9.1 0.1 17.1-2.5 7.5-2.6 11.2-6.8z"/>
		<path class="s2" d="m89.5 158.2q-10.3 10.9-29.2 10.7-17.8-0.2-33-9.9 12.5 12.5 31.4 14.1 19.5 1.6 32.3-10z"/>
		<path class="s0" d="m104.7 44.2q0.6 3.2 3.4 12.1 2.6 8.2 2.7 9.6 0.1 1.9-1 9.3-0.9 6.1-1.8 10.4-4.3 22.6-9.6 31.2-6.4 10.1-8.6 15.7-4.2 10.4-2.1 18.8l3.8 13.5q1.5 4.9 1.6 8.1l-2.9 6.2q-2.6 6.6-1.3 8.7 1.7 2.9 4.2 4.8 3.1 2.3 6.8 2.6 4.3 0.4 9.2-1.4 5.2-1.9 5.3-4.6l-0.2-7.9q0.1-5.6 1.2-8.2l3.2-3.3q3.3-3.9 4-6.6l7.5-1.4 2.4 1.8q2.4 2 2.7 3.6l-1.7 3.2q-1.5 3.7-0.9 4.8 0.9 1.7 8.1 4.3 7.8 2.8 13.3 2.8 6 0 11.2-3.5 5.3-3.5 1.8-5.4l-6.2-3.5q4-2.7 5.6-7.6 3.1-9.7-9.3-20.7 2.5-4.2 3.7-13.9 1.4-11.2-0.5-20.8l3.1 3.3q2.4 2.3 3.6 1.9 0.8-0.2 1.3-2.6l0.3-2.3q5.3 1.7 5.7 0.4 0.4-1.6 0-3-0.7-2.5-3.8-5.9-2-4.4-5.5-9.9-7-10.8-14.8-15.8 3.3-0.7 5.3-2.3 3.6-3 8.8-10.5 7.3-10.3 7.2-17.1-0.1-3.3-3-7.6-2.6-3.9-4.1-4.1l-5.3-13.5q0.3-0.7 0.4-1.6 0.3-1.7-0.8-2.9-4.6-5-9-7.4-10.2-5.6-23.8-3.6-9.9 1.4-16.8 14-7.2 13.3-4.4 27.8z"/>
		<path class="s2" d="m171.3 104.7q-3.2-2.4-5.1-2.6-1.5-0.2-1.2 0.9 0.3 1 2.2 1.7l3 0.4z"/>
		<path class="s2" d="m167.1 112.4q-3.8-6-7.4-10.1l0.3 4.2q5.9 6.1 7.1 5.9z"/>
		<path class="s2" d="m143 72q-7.1-1.3-11.2-3.2h-2.9q-0.2 1.1 1.5 3.4 4.6 6.1 9.8 6.1 4 0 6.1-1.5 1.8-1.2 3-4z"/>
		<path class="s2" d="m121.7 165.4q5.7-9.6 2.7-18.7 0.5 5.6-4.5 9.9-4.7 3.8-11.8 4.9-7.2 1.1-12.7-1.4-5.8-2.7-7.2-8.5l1 4.7 1.9 7.6q0.7 2 1.3 5.2 0.7 3.1 0.6 4.1-0.1 1.4-3.4 9.2 3-5.3 13.1-4.8 10.2 0.4 11.8 6.3 0-9.2 0.8-10.7 3.5-3 6.4-7.8z"/>
		<path class="s2" d="m153.6 161.8q-3.1-1.9-3.4-5.5-0.4-3.4 2.1-7-4.9 6.2-13.7 9.8-4.9 1.9-8.8 2.4 1.9 0.8 3.8 3.3l1.6 2.4q-1.2 1.6-1.8 3.9-0.6 2.1-0.5 3.8 0.1 1.5 3.8 3.1 2.3 1 9.5 3.2l6.4 1.1 3.9-0.2q-5.2-1.3-3.7-4.7 1.3-3 7.7-7 3.4-2 5.3-7.1l1.2-4.7q-2.6 3.7-6.6 4.4-3.7 0.7-6.8-1.2z"/>
		<path class="s3" d="m138.5 80.2q-4.3 5.5-8 13.6-10.1 21.8-8.7 44.4l2.6 8q2 9.5-1.3 16.3 8-0.3 16.7-4.2 17.3-7.9 20.5-26 2.6-14.2-1.3-32.2-2.2-10.1-5.8-19.2-1.2-1.4-2.9-2.9-3.5-2.9-6.2-2.8-1.8 0-5.6 5z"/>
		<path class="s1" d="m139.5 78.3l4.5-0.3q1.8-0.5 3.3-2l-1.3-0.5h-2.5q-1.8 0.8-4 2.8z"/>
		<path class="s1" d="m142.3 144.8q-10.7 2.2-18.4-1.4 1 0.8 1.3 7 0.4 7.6-2.1 12.2 7.9 0.5 17.4-4.4 14.8-7.6 19.6-25.1-5.6 9.2-17.8 11.7z"/>
		<path class="s4" d="m166.1 47.4l-2.4 2q-2.9 2.3-5.7 3.4l-2.5 0.6q3.7 1.1 6.4 3.6 2.6-4.4 4.2-9.6z"/>
		<path class="s5" d="m155.5 53.4l-15.9 1.6q-10.3 0.6-13 0.3 1.8 3.8 10.5 7.9 9.6 4.7 16.4 3.3 1-0.3 3.3-2.7 2.7-2.8 5.1-6.8-2.7-2.5-6.4-3.6z"/>
		<path class="s6" d="m161.6 57.1q0.3-0.6-2.9-2.2l-3.2-1.5-18.5 1.5-10.4 0.4q1.9 2.7 5.7 5.1 1.8 1.2 3.4 1.9 3.8-3.3 12.2-5.1 8.6-1.9 13.7-0.1z"/>
		<path class="s7" d="m125.3 24.9q2.4 5.3 3.1 10.8 0.8 6.1-0.7 11.2 2.8-0.1 3.1-0.7 1.3-3.4-0.3-10.5-1.7-7.6-5.2-10.8z"/>
		<path class="s8" d="m121 23.2q-4.5 0.4-4.7 10.5-0.1 8.3 1.3 11.7 0.4 1 3.9 1.4 3 0.3 6.2 0.1 1.5-5.1 0.7-11.2-0.7-5.6-3.1-10.8-2-1.9-4.3-1.7z"/>
		<path class="s8" d="m164.3 31.3q-0.9-4.1-2.4-8-2.9-7.8-5.4-6.8-2.4 1 0.2 11.4 2.7 10.4 4.7 9.8 1.5-0.5 2.3-3.5z"/>
		<path class="s7" d="m168.1 45.7q-0.5 1.3-4.3 3.4 2 1.8 2.8 1.6 0.7-0.3 1.5-5z"/>
		<path class="s7" d="m161.7 57.3l-1.2-0.3-1.4 0.1q-0.3 0.6 0.5 3z"/>
		<path class="s7" d="m144.3 65.9l-0.4-1.6q-0.4-1.6-1-1.7-0.9-0.1-2 1.9z"/>
		<path class="s7" d="m143.1 54.6l-6.1 0.4q2.7 3.3 3.8 3.3 1.1 0 2.3-3.7z"/>
		<path class="s7" d="m157.7 179.6q-0.6-0.9-2.2-1.8l-1.4-0.7q-1.6 0.3-2.6 2.5l-0.7 2.2q1.6 1.5 6 2.2l4.5 0.2q0.3-0.4-0.6-1.3l-0.8-1 5.3 0.8 2.9-0.3q0.3-0.3-0.7-1.5l-1.1-1 3.9 0.4q4.1 0.1 4.3-0.8 0.2-0.9-3.4-3.6-3.7-2.7-4.8-1.9-1.3 0.8-2 3.7l-1.1-1.1q-1.3-1.2-2.5-1-1.3 0.1-2.3 2.1z"/>
		<path class="s9" d="m27.5 86.5l-0.5 2q-0.2 1.5 0.3 2.7 0.4 0.9 0.1 2-0.2 1.2-1.1 2.2l-0.4-1.7-3.2 3.3v2.8l-0.9 1.7q-0.6 0.9-0.7 3.2l-2.7 1.7 1.9 3.2q0.5 0.9 0.6 2.9 0 1-0.1 1.8l-4.4-2.7-0.1 1v1.6q0.5 3-0.2 3.8-1.7 2-2.1 3.2-0.4 1.6 0.6 3.6 1 2.2 1.1 4.5 0 2-0.7 2.7l2.3-0.2q1.3-0.6 2.6-2.4 1.2-1.7 4.3-2.5l3.9-0.7q1.3-0.3 2.8-2.4 1.6-2.4 1.3-4.4-0.3-1.5-1.6-4.1-1.1-2.4-1.1-3 0.1-0.7 1.1-2.6 1.1-1.9 1.1-2.6 0-0.7-1.1-3.3-1-2.5-0.9-3l0.6-1.9q0.6-1.4 0.6-2.2 0-0.8-0.8-2.2l-0.9-1.8q-0.1-1.3 0.5-3.5 0.8-3.4-1.8-5.9v1.2q-0.1 1.4-0.4 2z"/>
		<path class="s10" d="m12 88.3q-1.5 1.1-1.6 3-0.2 3 0.5 6.7l-1.7-1.4q-1.8-1.4-2.3-1.1-0.7 0.5 0.7 9l-0.9-0.7q-1-0.6-1.2-0.3-0.3 0.4 0.4 7.7l-4.1-6.6 0.1 2q0 2.1-0.1 2.6l-0.1 2.1 0.5 2.7q1.1 3.2 0.8 4-0.2 0.6 0.1 1.5 0.3 1.1 1.1 1.8l2.2 1.9q1.5 1.3 1.7 2.2l0.8 1.6 2 1.6 4.2 3.3q0.6-0.6 0.6-2.6-0.1-2.4-1.1-4.5-1-2-0.6-3.6 0.4-1.2 2.1-3.2 0.7-0.8 0.2-3.8v-1.6l0.1-1 4.4 2.7q0.1-0.8 0.1-1.8-0.1-2-0.6-2.9l-1.9-3.2 2.7-1.7q0.1-2.3 0.7-3.2l0.9-1.7v-2.8l3.2-3.2q-2-3.1-2.1-4.1l0.1-3q0.1-2.4-0.9-3.9-0.9-1.4-3.6-4l-2.7-2.9q-0.5-0.7-1.1-3.1-0.6-2.6-0.4-4.1l-1.3 2.7q-1.2 3.2-0.9 5.5l1.2 5.6q0.8 3 0.1 3.9z"/>
		<path class="s11" d="m164.9 176.2l-0.5 1.6 2.1 2.1 4.4 0.3 3.2-0.3q-0.6-0.8-5-2.3-2.2-0.8-4.2-1.4z"/>
		<path class="s11" d="m167.7 182.9q-5.6-4-9.2-5l-0.5 1.7 1.8 2.4z"/>
		<path class="s11" d="m160.9 184.6q-1.6-1.2-3.5-2.3-3.9-2.5-5.5-2.9l-0.6 1.1q-0.5 1.2 0 1.8 0.8 1.1 4.9 1.7z"/>
		<path class="s9" d="m26.1 93.8l-0.5-0.8q-0.6 1.3-3 3.4-0.6 0.4-0.5 2 0.2 1.6-0.2 1.9-0.8 0.7-1 1.5l-0.1 1.8q0 1.2-1.9 1.8-2.4 0.8-0.2 3.4 0.9 0.9 1.3 2.4 0.3 1.2 0.2 2.1l-2.9-1.7q-1.2-1-1.4-1-0.2 0.1-0.3 1.7l0.3 3.1q0.2 1.7-0.7 2.6-1.6 1.6-1.9 3.2-0.5 1.9 1 4.5 0.5 0.9 0.6 2.2 0.2 1.7-0.1 3.4-0.1 0.7 0.5 1 0.6 0.3 0.6-0.1l0.5-2.9q0.2-1.7-0.8-4-0.9-2-0.8-3.3 0.1-1.6 1.5-2.9 1.2-1.3 0.9-2.8-0.4-2.3-0.1-3.4l2.1 1.4q1.5 0.9 1.9 0.6 0.3-0.2 0.3-2.1 0.1-3.1-1.5-5-0.6-0.6-0.4-1 0.2-0.4 1.5-1.2 0.6-0.3 0.8-0.8l0.1-1.1q0-1.5 1.2-2.8 0.5-0.5 0.4-1.9l0.1-1.9 1.2-1.6z"/>
		<path class="s7" d="m120.4 24.5q-1.1 0.2-1.7 2.2-0.6 2-0.2 4.8 0.4 3.3 1.8 5.1 1.2 1.4 2.2 1.2 1.2-0.3 1.8-2.7 0.5-2.2 0.2-4.6-0.5-3-1.8-4.7-1.1-1.4-2.3-1.3z"/>
		<path class="s7" d="m156.7 17.5q-0.4 0-0.5 2-0.1 2 0.3 3.7 0.6 3 1.5 4.6 0.8 1.3 1.5 1.2 0.6-0.2 0.8-1.6 0.2-1.7-0.6-4.7-0.7-2.5-1.6-4-0.8-1.3-1.4-1.2z"/>
		<path class="s12" d="m128.7 36.9q-1.1-1.9-2.4-2.1 0.5 3.6-0.2 5.9-0.7 2.3-2.4 2.5-1.4 0.2-2.8-1.2-1.6-1.6-2.3-4.7-1.5 1.8-1.6 4.8l1.1 3.6q2.2 1.2 6 1.3l3.4-0.1q1.2-2.5 1.3-6.5z"/>
		<path class="s12" d="m158 28.8q-0.5 1-0.5 2l1.1 3.4q1.3 3.3 2.6 3.3 1.4 0.1 2.3-2.4l0.8-3.3q0.2-0.7-0.3-2.8l-0.5-2-0.6-0.6-1.3-0.8q0.9 2.8 0.7 5-0.2 1.9-1.2 2.2-0.8 0.3-1.7-0.8-1-1.1-1.4-3.2z"/>
		<path class="s8" d="m130 1.1q-17.7 1.7-24.1 20.5-2.6 7.9-2.4 16.9 0.1 8.8 2.9 15.9 2.2 5.9 2.7 7.5 1.5 4.4 1.7 7.2 0.3 5.4 1.2 5.3 0.8-0.1 0.3-5.4-0.4-6.4-4-15-2.7-6.4-2.9-14.8-0.2-8.5 2.3-16.2 6-18.5 22.4-20.1 7.3-0.7 14.9 2.1 7.7 2.8 12.1 7.9 1.2 1.3 1.5 2.4 0.4 1.2-0.1 2.6-0.1 0.3 0.5 0.6l0.7-0.1q1.3-3.6-1.5-6.7-4.8-5.4-12.6-8.3-7.9-3-15.6-2.3z"/>
		<path class="s8" d="m131.5 46q1.4-8-2.1-15.9-3.5-8-8.5-7.5-5.2 0.5-5.2 10.8 0 8.8 2 12.4 0.8 1.6 7.2 1.7 6.3 0.2 6.6-1.5zm-12.9-1q-2.1-5.5-1.4-12.9 0.8-7.7 3.9-8 3.4-0.4 6.6 6 3.4 6.9 2.5 15.5-0.6 0.9-5.7 0.6-5.2-0.2-5.9-1.2z"/>
		<path class="s8" d="m162 21.9q-3-6.5-5.2-6.2-3.3 0.4-1 11.2 2.3 10.8 5.4 11.4 1.1 0.2 2.4-2.2 1.2-2.3 1.2-4.3 0.1-3.7-2.8-9.9zm-5-4.7q1.5 0 4.1 5.7 2.6 5.6 2.6 8.9v0.1q0 1.8-1 3.5-0.8 1.6-1.4 1.4-2-0.5-4.1-10.1-2.1-9.5-0.2-9.5z"/>
		<path class="s8" d="m161.5 44.8q0.5-1.1-0.1-1.5-0.5-0.3-1 0.8l-0.3 1.5q0 0.9 0.2 1.1 0.4 0.2 1.2-1.9z"/>
		<path class="s8" d="m148.5 47.5q-1.3-0.6-1.4 0.2-0.2 0.7 1.1 1.3 1.7 0.9 2 0.6 0.1-0.2-0.4-1-0.6-0.8-1.3-1.1z"/>
		<path class="s8" d="m164.4 30.3q-0.2-0.2-0.4 0.6-0.1 0.7 0.1 0.9 5.9 5.4 6.5 10.1 0.8 6-6.2 17-7 11-12.4 12.6-2.4 0.7-7.2 0-4.8-0.7-9.9-2.4-3.5-1.2-3.6-0.5-0.2 0.6 3.3 1.9 5.2 1.9 10.6 2.7 4.9 0.5 7.2-0.2 5.7-1.6 13.1-12.9 7.7-11.7 6.8-18.6-0.4-2.8-2.5-5.8-2.1-3-5.4-5.4z"/>
		<path class="s8" d="m124.7 21q1.6 1.2 2.3 2 0.9 0.9 1.5 2.3 0.7 1.7 1.4 1.5 0.7-0.2 0.1-1.9-1.2-3-4.2-4.6-1.5-0.8-1.9-0.5-0.3 0.4 0.8 1.2z"/>
		<path class="s8" d="m155 14.6q0.5-1 0.1-1.2-0.3-0.2-1 0.7-1.7 2.1-1.4 5.7 0.2 1.7 0.9 1.6 0.8 0 0.6-1.7-0.2-2.8 0.8-5.1z"/>
		<path class="s8" d="m170.2 41.7q-0.3-1.9-0.7-1.9-0.4 0-0.3 2 0 1.6-0.9 2.6-1.6 1.8-5.3 4.6-3.6 2.7-5.1 3.2-2.4 0.9-14.6 1.8l-15.1 0.7q-1.3 0-2.1-0.4l-1.6-1.4q-1.1-1.2-1.4-0.9-0.3 0.3 0.6 1.7 0.7 1.2 1.6 1.7 1 0.6 2.6 0.6l14.8-0.7q12.8-0.9 15.7-1.9 1.7-0.6 5.7-3.6 4.1-3.1 5.3-4.7 0.5-0.6 0.7-1.6 0.3-1 0.1-1.8z"/>
		<path class="s8" d="m165.2 50h-0.8q-1.9 5.5-5.9 10.5-3.6 4.8-5.8 5.3-4.5 1.2-12.6-2-8.4-3.4-13-8.8h-1q-0.7 0.1-0.5 0.3 4.6 5.9 13.7 9.7 8.8 3.7 13.8 2.4 2.6-0.7 6.5-5.8 4.2-5.3 6.3-11.1 0-0.3-0.7-0.5z"/>
		<path class="s8" d="m168.6 45.9q0-0.3-0.7-0.3-0.7 0-0.7 0.3 0 0.6-0.3 2.3-0.4 1.9-0.6 1.9-0.3 0.1-1-0.4l-0.8-0.9-1 0.9 1.7 1.2 1.4 0.4q0.5-0.2 1.3-2.3 0.7-2 0.7-3.1z"/>
		<path class="s8" d="m137.1 54.9q-0.6 0.4-0.4 0.6l2 2.1q1.5 1.2 2.2 1.2 0.6 0 1.6-1.4 1.1-1.4 1.4-2.5 0-0.3-0.6-0.5-0.7-0.1-0.8 0.2l-0.8 1.9q-0.6 1.1-0.8 1.1-0.4 0.1-1.6-1l-1.5-1.8z"/>
		<path class="s8" d="m161.8 57.4q0.2-0.4-0.1-0.6l-1.5-0.3q-1.2 0-1.5 0.3-0.3 0.3 0 1.7 0.2 1.3 0.5 1.9 0.3 0.4 1-0.6l-0.7-1.6-0.1-0.8q0.3-0.3 1.8 0.3 0.3 0.1 0.6-0.3z"/>
		<path class="s8" d="m143.1 62.1q-0.4-0.1-1.2 0.7l-1.5 1.6q-0.2 0.3 0.3 0.6 0.4 0.2 0.6 0 1.2-1.9 1.6-1.8 0.3 0 0.5 1l0.2 1.6q0 0.3 0.6 0.3 0.5 0.1 0.5-0.3 0-0.8-0.5-2.1-0.6-1.5-1.1-1.6z"/>
		<path class="s8" d="m150.9 72.5q-0.3-0.2-0.6 0.6l-0.2 0.9q6.1 4.3 10 9.4 3.8 4.8 9.7 15.5 2.7 2.9 3.6 5.6 0.7 2 0 2.5-0.9 0.8-4.9-0.5l-0.7-0.1-0.1 1q0 3.5-1.1 3.8-0.7 0.2-2.6-1.6-2-1.8-3.4-4.1-0.3 0.2-0.4 0.7l0.1 0.9q0.8 1.7 3 3.8 2.5 2.3 3.7 1.9 2-0.6 1.9-4.9 2 0.8 3.8 0.8 1.7 0.1 2.3-0.5 0.8-0.9 0.1-3.3-0.9-3.1-4.2-6.8-5.5-10.7-10.3-16.6-4-4.9-9.7-9z"/>
		<path class="s8" d="m169.4 101.3q1.6 2.3 1.1 2.9-0.5 0.4-3.2-0.5-1.5-0.6-1.7-0.2-0.1 0.5 1.3 1.2 3.6 1.6 5 0.9 1.5-0.9-1.6-5-1.1-1.4-1.5-1.1-0.4 0.3 0.6 1.8z"/>
		<path class="s8" d="m150.7 72.5l-0.8 0.2q-0.7 0.3-0.5 0.6 13.4 30.6 10.6 53.9-3.6 30.9-36.9 35-0.3 0.1-0.5 0.8-0.3 0.8 0.1 0.8 35.5-4 39.3-35.9 2.8-23.9-11.3-55.4z"/>
		<path class="s8" d="m154.9 83.3q-1.9-4.1-4.6-6.5-2.7-2.3-5.5-2.3-3.8 0-8.5 6.8-4.4 6.3-8.3 16.5-9.1 23.8-6.6 40.5l0.8 1.4 0.8 0.7q-2.6-18.2 6.8-42 3.7-9.6 8-15.9 4.3-6.3 7-6.3 1.9 0 4.5 2.1 3.2 2.5 5.2 6.9 0.1 0.3 0.3-0.7 0.3-1 0.1-1.2z"/>
		<path class="s8" d="m111.9 68.5q0.1-0.3-0.6-2.4-0.8-2.1-0.8-1.8-3.1 21.9-5.8 32.5-3.7 14.5-10 24.6-10.2 16.5-7.6 30.7 0.5 2.9 3.1 11 2.1 6.6 2.2 10.8 0.2 4 1 3.8 0.7-0.2 0.5-4.3-0.3-4.7-2.2-11.3-2.3-7.8-2.8-10.7-2-13 8.1-29.9 6.2-10.5 9.4-23.5 0.7-3 5.5-29.5z"/>
		<path class="s8" d="m115.8 172.6q-0.9 0.4-1 0.7-1.3 3.5-1.2 10.1 0 6.2-0.7 7.3-1.2 1.8-4.7 2.8-3.5 1.1-7.3 0.8-9.9-0.6-11.5-8-0.4-1.9 1.8-7.2 2.4-5.7 2.5-6.2 0-0.3-0.5-1.2-0.4-0.9-0.5-0.6-0.1 1.8-2.8 7.6-2.4 5.2-2.1 7.7 1.2 8.3 12.5 9.2 4.5 0.3 8.6-0.8 4.1-1.2 5.5-3.2 1.2-1.7 0.8-8.7-0.4-7.1 1.4-10.5z"/>
		<path class="s8" d="m121.8 136.7q-1.9-3.4-2.4-3-0.5 0.4 1.2 3.9 4.7 9.7 3.2 18.9-1.5 9.1-9.2 16.4-2.8 2.6-2.3 3.2 0.4 0.5 3.2-2 8.5-7.5 10.3-16.8 1.9-9.9-4-20.6z"/>
		<path class="s8" d="m157.5 140.8q-0.2-0.1-0.7 0.7-0.5 0.7-0.2 0.9 3.6 2.6 6.6 7.9 3.2 5.5 2.9 9.5-0.2 3.2-2.8 6.3-2.4 3.1-6 4.8-3.1 1.5-2.8 2 0.2 0.6 3.6-0.8 4.1-1.7 6.8-5.1 2.8-3.4 3.1-7.1 0.4-5.1-3.4-11.2-3.1-5.1-7.1-7.9z"/>
		<path class="s8" d="m135.9 167.8q0.2-0.3-0.5-0.7-0.6-0.4-0.8-0.2-1.7 2.4-2.4 4.7-0.7 2.5-0.1 4 0.6 1.8 6.5 4 6.2 2.5 12.4 3.1 0.4 0.1 0.4-0.7 0.1-0.7-0.2-0.8-6.1-0.6-11.6-2.8-4.9-2-5.8-3.8-0.5-0.8 0.1-2.8 0.6-2 2-4z"/>
		<path class="s8" d="m161.2 169.3q-0.3-0.1-0.8 0.6-0.5 0.7-0.2 0.8 1.3 0.5 3.4 1.6 2 1.1 3.1 2l1-0.2q0.7-0.3 0.4-0.5-1.3-1.1-3.3-2.4-2.2-1.3-3.6-1.9z"/>
		<path class="s8" d="m135.7 169.8q1.1 2.4 1.6 2.2 0.5-0.2-0.2-2.7-0.8-2.7-2.9-5.1-2-2.5-3.8-2.9-0.3 0-1.1 0.5-0.8 0.6-0.5 0.6 1.3 0.3 3.5 2.5 2.3 2.4 3.4 4.9z"/>
		<path class="s8" d="m164.7 174.7q-0.8 1.3-1 2.9-0.1 0.3 0.6 0.4 0.6 0 0.7-0.3l0.8-2q0.6-1 1-1 1.5 0 4.1 1.9 2.5 1.9 2.3 2.5-0.2 0.5-2.6 0.5l-4.2-0.5q-0.3 0-0.4 0.6-0.2 0.7 0.1 0.7l6.7 0.4q2.3-0.3 2.4-0.9 0.2-1.3-3.3-4-3.5-2.8-5.2-2.7-1.1 0-2 1.5z"/>
		<path class="s8" d="m158.6 179.8q0.1-1.3 0.7-2.4 0.7-1.2 1.4-1.1 1.4 0.3 4 2.8 2.6 2.3 2.4 2.9-0.1 0.4-3 0l-4.4-0.9q-0.3-0.2-0.3 0.5 0 0.7 0.3 0.7 2.4 0.8 5.6 1.1 3.2 0.3 3.6-0.5 0.5-1-2.7-4.3-3.1-3.4-5.3-3.7-1.3-0.2-2.4 1.3-1.1 1.5-1.1 3.6 0 0.3 0.6 0.3 0.6 0 0.6-0.3z"/>
		<path class="s8" d="m162.1 184.8q0.5-0.9-2.6-4.5-3.2-3.6-5.1-3.8-1.4-0.1-2.9 2.1-1.5 2.2-1.1 3.6 0.3 1.4 5.9 2.3zm-1.7-1l-4.1-0.5q-4-0.8-4.3-1.5-0.3-0.9 0.5-2.4 0.8-1.4 1.7-1.3 1.3 0.1 3.9 2.7 2.5 2.5 2.3 3z"/>
		<path class="s8" d="m20.9 129.1q-0.1-0.3-0.8 0-0.7 0.3-0.6 0.6 5.5 13.1 15 20.6 8.6 6.8 19.2 8.2 9.9 1.3 19.2-2.1 9.3-3.4 15.2-10.4 0.2-0.2-0.2-1.4-0.4-1.2-0.6-0.9-6.4 7.6-15.7 11-9.1 3.4-18.7 1.9-10-1.7-18.1-8.3-8.9-7.2-13.9-19.2z"/>
		<path class="s8" d="m16.5 132.3q0-0.4-0.8-0.3-0.7 0.1-0.7 0.4 2.1 17.4 12.3 28.9 8.9 10 22.6 14.2 12.2 3.7 24.5 1.8 12-1.9 18.3-8.2 0.2-0.2-0.2-1.2-0.4-1-0.6-0.8-5.9 6-17.5 8-11.9 2.1-23.8-1.2-13.3-3.7-22-13.3-10-11-12.1-28.4z"/>
		<path class="s8" d="m17.6 141.3l0.2 2.4q4.8 13.1 15.3 20.9 9.3 6.9 21.5 8.8 11.2 1.7 21.5-1.1 10.1-2.6 15.2-8.6 0.2-0.3-0.2-1.1-0.4-0.7-0.6-0.5-5 5.9-15.1 8.6-10.3 2.8-21.4 1-12.2-1.9-21.4-9-10.4-8.1-15-21.5z"/>
		<path class="s8" d="m12.7 73.8l-0.2 3.3q0 1.4 1.2 5.9 0.8 2.8-0.5 3.4-2.7 1.2-3.3 3.9-0.6 2.3 0.3 6.5-3.2-3.2-3.8-1.9-0.8 1.4 0.6 8.8-1.5-1.4-1.9-0.6-0.6 1 0.2 5.5l-1.6-2.2-1-1.9q-0.8-2.1-1.1-2.1-0.4-0.1-0.4 2.3l0.2 2.8q0.1 1.9-0.3 3.1-0.4 1.4 0.5 3.9 1 2.5 0.7 3.6-0.7 2.2 1.5 3.9 3.1 2.3 3.6 3.4l0.9 2q0.7 1.3 1.7 1.7 1.9 0.7 2.9 1.8 2.4 2.5 3.7 2.4 1.1-0.1 3.4-2.7 2.9-3.2 7.8-3.8 2-0.3 3.5-2.5 1.5-2.1 1.6-4.4 0.2-1.6-1.3-4.3-1.4-2.7-1.4-3.4 0.1-0.9 0.7-1.6l1-1.3q1-1.9-1.1-7.3-0.6-1.4 0-2.7 0.8-1.6 0.8-2.5-0.1-0.9-0.9-2.5l-0.7-1.6q-0.2-1.1 0.1-2.5 0.6-2.4 0-4.2-0.4-1-1.6-2.9-0.8-1.1-1-1.1-0.2 0.1-0.3 1.5l0.1 1.3q-0.1 1.3-0.6 2.7-0.6 1.6 0.1 3.8 0.4 1.3-0.2 2.8l-1.6-3.1q-0.6-1.2-0.6-2.3l0.2-2.2q0-3.8-2.1-6-1.2-1.4-4.8-4.3-1.4-1.7-1.7-5.7-0.4-3.6-0.7-3.6-0.4-0.1-1.8 3.6-0.5 1.3-0.8 3.3zm-5.3 24.2v-1.5q0.1-0.3 1 0.4 2.5 2 2.8 1.7 0.3-0.2 0-3.1-0.6-6.2 2.6-7.7 1.4-0.6 1.5-1.9 0.1-0.9-0.6-4.2-0.8-3.9-0.8-5.8 0-2.1 0.8-5.2 0.4 2.7 0.9 4.2 0.6 1.4 1.5 2.3 3.7 3.1 5.1 5.4 1.2 2 1.1 4.1-0.2 2 0 3l0.9 2 0.9 1.3q0.4 0.8 0.5 1.9 0.3 1.7 0.6 1.8 0.2 0 1.2-1.4 1-1.5 0.2-4.6-0.4-1.5 0.3-3.2 0.6-1.7 0.3-2.8 0.7 0.6 1 2.4 0.4 1.8-0.2 3.2-0.6 1.1-0.2 3l0.6 1.8q0.6 1.2 0.6 2.2l-0.4 1.8q-0.6 1.9-0.2 2.9 1.4 3.5 1.4 4.8 0 1.1-1 2.7-1.1 1.6-1 2.9l0.9 2.6 1 2q0.4 1.1 0.5 2.3 0.1 2.1-1.2 4-1.2 2.1-3 2.5l-4.7 1.4q-2 0.8-3.4 2.4-1.5 1.6-2.6 1.7-1.2 0.2-2.6-1.2-1.3-1.5-2.9-2.3-1.2-0.5-2-2.5-0.7-2-1.5-2.4-1.9-1.1-2.8-2-1.2-1.4-1-3.2 0.2-1.1-0.5-3.4-0.6-2.3-0.5-3.4v-2.8q-0.2-1.6-0.5-2.5l1.2 2.3 1.6 2.8q1.1 2.3 1.6 2.2 0.4 0 0.2-2.3l-0.4-3.1-0.2-3q1.5 1.2 1.9 1 0.4-0.2 0.3-1.7z"/>
		<path class="s8" d="m125.3 24.8l-1-0.2q-0.6 0.1-0.4 0.3 3.2 3.6 4 11.3 0.7 7.2-1.1 10.5-0.2 0.3 0.4 0.5l0.8-0.1q2.1-4 1.2-11.4-0.8-7.5-3.9-10.9z"/>
		<path class="s8" d="m154.9 53.1q-0.4 0-1.1 0.5-0.7 0.5-0.4 0.5 2.1 0.1 4.4 1.1 2.1 1 3.7 2.2 0.2 0.3 0.5-0.3 0.4-0.5 0.2-0.7-3.7-3-7.3-3.3z"/>
		<path class="s7" d="m113.2 191.7q-0.3-1-1.3-1.9-1.2-0.9-2.4-0.6-1.5 0.5-2.3 2.2-0.7 1.4-0.4 2.5 0.5 1.7 2.5 4.3 2 2.4 2.7 2.5 0.8 0 1.2-3.7 0.5-3.6 0-5.3z"/>
		<path class="s7" d="m103 193.5q0.2-1.4-0.2-2.6-0.6-1.3-2-1.6-2.7-0.5-3.8 2-0.6 1.6-0.3 5.5 0.4 3.8 1.1 4.1 0.7 0.3 2.6-2 2.2-2.5 2.6-5.4z"/>
		<path class="s7" d="m93.4 192.5q-0.3-3.3-2-4.8-1.5-1.5-2.6-0.3-1 1.2-1.9 5.9-0.9 4.5-0.3 4.8 0.6 0.3 3.8-2.3 3.1-2.6 3-3.3z"/>
		<path class="s0" d="m120.6 73.1l-11.3 17.7q2.2 7.8 9.7 15.7 2.6 2.7 8 7l4.1 3.6q2.6 2.1 3.4 1.8 0.8-0.2 1.3-3l0.4-2.8 2.6 1.6q2.7 1.4 3.4 0.7 0.6-0.6 0.2-3.1l-0.5-2.3q3.7 0 3.7-1.1-0.1-0.8-1.9-2.4-2.3-1.9-3.2-3.2-2-9.9-11.2-21-4.5-5.6-8.7-9.2z"/>
		<path class="s2" d="m134.3 118.8q-2.9-5.3-4.3-7l-9.5-8.7q-7.7-6.8-10.7-12 0.6 5.2 6.6 12.7 5.5 7 9.8 9.2 6.4 5.2 8.1 5.8z"/>
		<path class="s11" d="m107.9 190.3q-1.9 2.8 0.1 6.5 1.7 3.2 3.5 3.7l-2.5-5.5q-1.2-3.2-1.1-4.8z"/>
		<path class="s11" d="m102.1 190.2l-1.2 4.9q-0.8 2.8-1.9 5.2 0.9 0.2 2.4-2.2 1.5-2.4 1.7-4.6 0.1-1.8-0.4-2.7z"/>
		<path class="s11" d="m92.6 189.9l-2.6 3.5q-2.6 3.6-2.8 4.8l3-2.1q2.9-2.5 2.9-3.7 0-1.3-0.2-2z"/>
		<path class="s8" d="m109.5 188.8q-1.6 0.4-2.6 2-0.8 1.5-0.7 3.1 0.2 1.5 2.6 4.6 2.4 3.1 3.3 3 1.1-0.1 1.7-4.5 0.5-4.3-0.2-6.1-0.4-1.1-1.6-1.8-1.3-0.7-2.5-0.4zm0.3 1.3q1.9-0.1 2.5 1.4 0.6 1.5 0.3 5-0.3 3.2-0.8 3.4-0.5 0.2-2.2-2.2-1.7-2.4-2-3.9-0.2-1.2 0.5-2.4 0.6-1.2 1.7-1.3z"/>
		<path class="s8" d="m98.4 188.9q-1.1 0.6-1.7 1.9-0.9 1.9-0.4 6.3 0.4 4.2 1.4 4.5 1.3 0.3 3.7-3.2 2.5-3.6 2.4-5.8-0.1-1.4-0.8-2.5-0.9-1.3-2.2-1.5-1.3-0.3-2.4 0.3zm-0.6 2.5q0.4-0.7 1.2-1.2 0.7-0.4 1.5-0.2 0.7 0.1 1.3 0.8 0.6 0.8 0.6 1.9-0.1 2.4-2 5.1-1.7 2.4-2.2 2.3-0.5-0.2-0.8-3.4-0.4-3.5 0.4-5.3z"/>
		<path class="s8" d="m93.9 192.3q0.1-2-1.3-4.1-1.5-2.2-3.2-1.9-1.8 0.4-2.9 6.4-1.2 5.8-0.2 6.3 0.7 0.4 4-2.4 3.5-2.8 3.6-4.3zm-1.4-0.1q-0.1 1.2-2.6 3.2-2.3 1.9-2.6 1.7-0.4-0.3 0.4-4.3 0.8-4.3 2-5.1 1.2-0.1 2 1.5 0.9 1.5 0.8 3z"/>
		<path class="s8" d="m123.8 75q-2.6-2-3-1.8-0.4 0.4 1.9 2.6 5.8 5.7 10.2 12.4 5 7.6 6.8 14.7 0.4 1.2 1.6 2.6l2.2 2q1.2 1 0.8 1.4-0.4 0.4-2.6 0.4-0.3 0-0.2 0.7 0 0.7 0.3 0.7 2.8 0 4.1-0.8 1.7-1.2-1.2-3.5l-2.4-2.1q-0.9-0.9-1.1-1.8-2.1-7.8-6.7-15.2-4.8-7.8-10.7-12.3z"/>
		<path class="s8" d="m111.6 93.8q-1.4-3.5-1.8-3.2-0.5 0.2 0.7 4 1.8 5.7 6 10.8 4 4.9 8.8 7.8 1 0.6 4.6 3.9 3.6 2.9 5 2.5 0.8-0.3 1.4-1.9 0.6-1.7 0.6-3.5 1.9 1.4 3.8 1.8l2.1-0.1q0.7-0.6 0.4-2.5-0.2-1.9-1.2-3.7-1.3-2.6-1.9-2.4-0.5 0.1 0.7 2.9 1.4 3.4 0.7 4.1l-1.8-0.3q-1.5-0.5-2.9-1.4-0.7-0.5-0.9-0.4-0.3 0.1-0.3 0.9-0.3 4.4-1.3 4.7-0.9 0.2-3.7-2.2l-4.7-3.8q-3.9-2.5-8-7.4-4.2-5.2-6.3-10.6z"/>
	</g>
</svg>